HIERARCHY
ROOT pelvis
{
  OFFSET 0 100 0
  CHANNELS 6 Xposition Yposition Zposition Zrotation Xrotation Yrotation
  JOINT pelvis_right_femur
  {
    OFFSET -10.78128 -3.44521 -0.5502486
    CHANNELS 3 Zrotation Xrotation Yrotation
    JOINT right_femur_tibia
    {
      OFFSET -0.8047443 -44.0398 -0.1307829
      CHANNELS 3 Zrotation Xrotation Yrotation
      JOINT right_tibia_foot
      {
        OFFSET 3.006224 -47.83518 -5
        CHANNELS 3 Zrotation Xrotation Yrotation
        End Site
        {
          OFFSET 0 -5 15
        }
      }
    }
  }
  JOINT pelvis_left_femur
  {
    OFFSET 10.78128 -3.44521 -0.5502486
    CHANNELS 3 Zrotation Xrotation Yrotation
    JOINT left_femur_tibia
    {
      OFFSET 0.8047443 -44.0398 -0.1307829
      CHANNELS 3 Zrotation Xrotation Yrotation
      JOINT left_tibia_foot
      {
        OFFSET -4.370144 -48.10324 -4.275266
        CHANNELS 3 Zrotation Xrotation Yrotation
        End Site
        {
          OFFSET 0 -5 15
        }
      }
    }
  }
  JOINT pelvis_spine1
  {
    OFFSET 0 6.468898 -3.129235
    CHANNELS 3 Zrotation Xrotation Yrotation
    JOINT spine1
    {
      OFFSET 0 23.15396 4.99043
      CHANNELS 3 Zrotation Xrotation Yrotation
      JOINT spine2
      {
        OFFSET 0 20.79997 -5.064912
        CHANNELS 3 Zrotation Xrotation Yrotation
        JOINT neck
        {
          OFFSET 0 14.38658 9.616178
          CHANNELS 3 Zrotation Xrotation Yrotation
          End Site
          {
            OFFSET 0 20 0
          }
        }
      }
      JOINT right_manubrium
      {
        OFFSET -5.722621 16.35077 3.967754
        CHANNELS 3 Zrotation Xrotation Yrotation
        JOINT right_clavicle
        {
          OFFSET -13.16364 1.694482 -4.693211
          CHANNELS 3 Zrotation Xrotation Yrotation
          JOINT right_humerus
          {
            OFFSET -28.5034 -0.3100689 -2.792744
            CHANNELS 3 Zrotation Xrotation Yrotation
            JOINT right_radius
            {
              OFFSET -25.15693 0.02248979 -1.271978
              CHANNELS 3 Zrotation Xrotation Yrotation
              End Site
              {
                OFFSET -15 0 0
              }
            }
          }
        }
      }
      JOINT left_manubrium
      {
        OFFSET 5.722621 16.35077 3.967754
        CHANNELS 3 Zrotation Xrotation Yrotation
        JOINT left_clavicle
        {
          OFFSET 13.16364 1.694482 -4.693211
          CHANNELS 3 Zrotation Xrotation Yrotation
          JOINT left_humerus
          {
            OFFSET 29.39168 -1.063119 -2.237045
            CHANNELS 3 Zrotation Xrotation Yrotation
            JOINT left_radius
            {
              OFFSET 24.59957 -0.9528479 0.9047498
              CHANNELS 3 Zrotation Xrotation Yrotation
              End Site
              {
                OFFSET 15 -0 -0
              }
            }
          }
        }
      }
    }
  }
}
MOTION
Frames: 9
Frame Time: 0.0416666666667
-1309.976 106.3898 2332.641 -5.49807 -0.7550496 -76.92869 3.999089 18.07418 1.411879 -0 12.52883 -0 -8.610137 -17.18829 -0.6989227 3.10588 -24.47389 -4.706982 -0 10.31012 -0 -0.8420288 -2.869331 18.10357 -0.4835172 -2.256304 7.828048 -0.6805743 15.36013 -5.026367 0.6159479 21.36355 3.695091 3.663511 -16.15166 3.047229 0.7043957 -26.64862 12.81283 85.93216 22.70274 -9.70996 -0 0 25.59657 -22.45639 11.02141 10.33179 4.428314 -23.36408 -7.658754 -93.36123 9.727729 29.80399 0 0 -5.286263 11.16263 12.8628 -2.479028
-1315.699 105.3464 2334.922 -6.059649 -1.230784 -77.41296 2.997856 19.84319 1.034145 -0 17.19344 -0 -8.557468 -14.07233 -0.2397899 1.80586 -22.15727 -6.068121 -0 8.251385 -0 -0.8266075 -3.148996 18.94984 -0.4230156 -2.386051 8.025838 -0.6956339 15.4834 -4.97304 0.6753662 21.25263 3.463613 3.464784 -16.05155 2.994948 0.6192357 -27.09492 12.84423 85.74564 22.23251 -9.26092 -0 0 26.38047 -22.48573 11.26829 10.5774 4.235738 -23.20038 -7.655628 -93.68437 9.792376 30.59736 0 0 -4.802905 10.66721 12.83243 -1.844816
-1321.8 104.7594 2337.337 -6.786684 -1.822613 -77.83472 2.085784 20.64084 0.3405694 -0 22.8483 -0 -8.792455 -9.090549 0.498189 0.1843871 -19.23291 -7.392486 -0 8.742463 -0 -0.7324333 -3.726869 19.66619 -0.3947298 -2.464696 8.125246 -0.6991002 15.56167 -4.970184 0.691446 21.18708 3.358232 3.384675 -15.98795 2.958297 0.5986366 -27.31252 12.86951 85.67583 22.06825 -9.110655 -0 0 26.76634 -22.46824 11.40558 10.62376 4.159886 -23.18145 -7.67692 -93.8113 9.753877 30.95939 0 0 -4.623339 10.51904 12.82935 -1.664457
-1328.148 104.7691 2339.841 -7.497121 -2.406984 -78.13521 1.306878 20.13135 -0.5141736 -0 29.32722 -0 -9.361278 -3.033594 1.394293 -1.542433 -16.00833 -8.572163 -0 10.99071 -0 -0.4954637 -4.559202 20.08185 -0.4008923 -2.485602 8.122533 -0.6955609 15.59076 -5.012183 0.6621602 21.17549 3.385287 3.433114 -15.95658 2.934602 0.6462283 -27.29374 12.88817 85.71708 22.2337 -9.25248 -0 0 26.74591 -22.40423 11.41919 10.46251 4.204492 -23.30739 -7.72519 -93.74283 9.61207 30.88655 0 0 -4.729422 10.73039 12.86464 -1.956518
-1334.522 105.4038 2342.365 -8.023054 -2.873217 -78.2392 0.6628145 18.0123 -1.325239 -0 36.19127 -0 -10.20493 3.025149 2.249879 -3.163408 -12.67252 -9.570524 -0 13.95545 -0 -0.1131344 -5.605868 20.0692 -0.4399878 -2.445635 8.012612 -0.6838508 15.5654 -5.096052 0.5905096 21.22 3.548996 3.607068 -15.97179 2.933498 0.7565744 -27.03207 12.89738 85.876 22.71763 -9.685062 -0 0 26.30047 -22.30598 11.31091 10.11084 4.369725 -23.56834 -7.792666 -93.48509 9.376033 30.3726 0 0 -5.118656 11.29776 12.93581 -2.711781
-1340.667 106.5435 2344.826 -8.259803 -3.149991 -78.08511 0.1412877 14.15647 -1.936252 -0 42.49378 -0 -11.13823 7.965625 2.810955 -4.478264 -9.295902 -10.37892 -0 16.51649 -0 0.3211762 -6.877609 19.59957 -0.5061482 -2.348303 7.793179 -0.6572455 15.48312 -5.222438 0.4844113 21.31354 3.84701 3.888176 -16.06119 2.973708 0.9146585 -26.53003 12.89337 86.16902 23.46724 -10.40955 -0 0 25.41485 -22.19617 11.10261 9.610728 4.649605 -23.94632 -7.86401 -93.04998 9.061622 29.4184 0 0 -5.804089 12.19614 13.02541 -3.886988
-1346.392 107.9231 2347.147 -8.214859 -3.234541 -77.66403 -0.2603835 8.776808 -2.336797 -0 46.7959 -0 -11.90358 10.99456 2.857498 -5.346257 -5.840932 -10.98111 -0 17.78263 -0 0.6361539 -8.450902 18.79577 -0.5898647 -2.207561 7.472342 -0.6055391 15.34889 -5.395196 0.3560982 21.43769 4.263356 4.241875 -16.25244 3.075493 1.097795 -25.81103 12.87376 86.61178 24.38634 -11.41919 -0 0 24.10501 -22.0999 10.83699 9.020956 5.028676 -24.41728 -7.921273 -92.4571 8.687559 28.05005 0 0 -6.80668 13.37074 13.10232 -5.398204
-1351.647 109.1992 2349.274 -8.009554 -3.204011 -77.04435 -0.5430364 2.476328 -2.668764 -0 47.67631 -0 -12.28838 11.9761 2.345387 -5.755681 -2.210606 -11.34661 -0 17.45646 -0 0.6896014 -10.41224 17.92509 -0.6806507 -2.047542 7.07338 -0.5191196 15.17613 -5.618425 0.2202527 21.56522 4.765906 4.622938 -16.55874 3.251998 1.281311 -24.9244 12.83925 87.20433 25.35207 -12.68659 -0 0 22.43876 -22.03327 10.56862 8.401503 5.48201 -24.95356 -7.949088 -91.73532 8.271394 26.33143 0 0 -8.138952 14.73813 13.12997 -7.127832
-1356.542 110.0632 2351.186 -7.79255 -3.172556 -76.35476 -0.7166316 -3.939065 -3.098545 -0 44.57579 -0 -12.19117 11.41118 1.442199 -5.838263 1.638543 -11.45643 -0 15.95258 -0 0.5080162 -12.74327 17.28255 -0.7703885 -1.895921 6.631513 -0.3930752 14.98191 -5.891865 0.09128026 21.66799 5.31252 4.986716 -16.97304 3.504615 1.445678 -23.93689 12.79334 87.92063 26.24735 -14.15586 -0 0 20.53076 -21.99706 10.34727 7.799721 5.979717 -25.52498 -7.936897 -90.92257 7.82865 24.36038 0 0 -9.785791 16.19945 13.07851 -8.945453
